<svg width="130" height="60" viewBox="0 0 130 60" fill="none" xmlns="http://www.w3.org/2000/svg">
<path d="M17.8089 55.7318C16.923 55.5781 16.0108 55.5126 15.1557 55.2566C9.87293 53.6781 6.46829 50.1901 5.04104 44.9314C2.91424 37.0966 6.75918 29.268 14.9026 26.0927C16.0899 25.6297 17.3457 25.3423 18.5577 24.937C21.3594 24.0005 23.7666 22.4911 25.4847 20.0452C26.4075 18.7296 26.9928 17.2848 27.0667 15.6548C27.1756 13.2298 26.1175 11.4155 24.1463 10.0807C22.8359 9.19057 21.3559 8.73633 19.8083 8.45505C18.8697 8.28646 18.1886 7.57278 18.1385 6.70798C18.0769 5.71564 18.599 4.87355 19.5218 4.6604C19.97 4.55907 20.4797 4.60275 20.9393 4.6936C23.4827 5.19239 25.8433 6.13144 27.7346 7.93967C30.9863 11.0486 31.7456 14.8144 30.3641 19.0048C29.2286 22.4474 26.8584 24.9256 23.8088 26.8072C21.936 27.9629 19.8821 28.6679 17.7667 29.2461C15.0687 29.9834 12.6923 31.2841 10.9117 33.4924C8.95278 35.927 8.18731 38.7336 8.45711 41.8155C8.70495 44.644 9.78241 47.1152 11.8846 49.0728C13.7776 50.8383 16.0152 51.9005 18.6517 51.8612C21.3076 51.821 23.5522 50.7789 25.2773 48.7592C27.376 46.3011 27.2213 43.3433 24.9258 40.9891C24.7333 40.7917 24.5198 40.6135 24.3317 40.4117C23.6286 39.6517 23.6163 38.4567 24.3378 37.7326C25.1033 36.9639 26.1834 36.8678 26.9744 37.5579C31.2649 41.3088 31.9935 46.9047 28.2127 51.344C26.07 53.859 23.285 55.1998 20.0297 55.6392C19.7863 55.6716 19.542 55.6969 19.2977 55.7266L17.8089 55.7318Z" fill="#3D73DC"/>
<path d="M41.782 11.1123C43.4676 11.1726 45.0575 11.529 46.5365 12.3161C46.9843 12.5551 47.3206 12.9582 47.4741 13.4398C47.6276 13.9213 47.5861 14.4434 47.3586 14.8951C47.131 15.3468 46.7353 15.6925 46.2554 15.8588C45.7755 16.0251 45.2493 15.9989 44.7885 15.7858C43.8034 15.3088 42.7205 15.0651 41.6247 15.0738C38.2631 15.1262 35.3735 17.8001 35.0377 21.1152C34.862 22.8824 35.2355 24.5404 35.9166 26.1451C36.9088 28.4949 37.7876 30.8744 38.3106 33.3806C39.3458 38.3484 38.4318 42.9476 35.7549 47.2297C35.2557 48.0281 34.7143 48.802 34.1923 49.5882C33.6439 50.4111 32.4038 50.7352 31.4942 50.1176C31.066 49.8305 30.7678 49.3883 30.6633 48.8855C30.5588 48.3827 30.6565 47.8593 30.9353 47.4271C31.4767 46.5693 32.0725 45.7446 32.5989 44.8781C33.7239 43.0244 34.5069 41.0389 34.7319 38.8725C34.9539 36.8651 34.7631 34.8338 34.1712 32.9019C33.5956 31.0552 32.8995 29.2444 32.2043 27.4379C31.3255 25.1518 30.9309 22.8081 31.2675 20.3745C31.9627 15.3359 35.6951 12.1632 39.591 11.4329C40.3152 11.2975 41.0508 11.218 41.782 11.1123Z" fill="#3D73DC"/>
<path d="M18.991 34.462C18.9887 33.8549 19.2286 33.2717 19.6583 32.8402C20.088 32.4087 20.6723 32.1642 21.283 32.1602C21.746 32.1528 22.2006 32.2826 22.589 32.5331C22.9774 32.7836 23.2819 33.1434 23.4636 33.5667C23.6453 33.99 23.6961 34.4574 23.6094 34.9095C23.5226 35.3615 23.3024 35.7776 22.9767 36.1047C22.651 36.4318 22.2346 36.655 21.7808 36.7459C21.3269 36.8367 20.8561 36.7911 20.4284 36.6148C20.0007 36.4386 19.6356 36.1396 19.3796 35.7562C19.1235 35.3728 18.9883 34.9222 18.991 34.462Z" fill="#3D73DC"/>
<path d="M58.328 16V4.8H63.176C64.1787 4.8 65.0427 4.96533 65.768 5.296C66.4933 5.616 67.0533 6.08 67.448 6.688C67.8427 7.296 68.04 8.02133 68.04 8.864C68.04 9.696 67.8427 10.416 67.448 11.024C67.0533 11.632 66.4933 12.1013 65.768 12.432C65.0427 12.752 64.1787 12.912 63.176 12.912H59.768L60.92 11.744V16H58.328ZM60.92 12.032L59.768 10.8H63.032C63.832 10.8 64.4293 10.6293 64.824 10.288C65.2187 9.94667 65.416 9.472 65.416 8.864C65.416 8.24533 65.2187 7.76533 64.824 7.424C64.4293 7.08267 63.832 6.912 63.032 6.912H59.768L60.92 5.68V12.032ZM70.0468 16V4.8H74.8948C75.8974 4.8 76.7614 4.96533 77.4868 5.296C78.2121 5.616 78.7721 6.08 79.1668 6.688C79.5614 7.296 79.7588 8.02133 79.7588 8.864C79.7588 9.696 79.5614 10.416 79.1668 11.024C78.7721 11.6213 78.2121 12.08 77.4868 12.4C76.7614 12.72 75.8974 12.88 74.8948 12.88H71.4868L72.6388 11.744V16H70.0468ZM77.1667 16L74.3668 11.936H77.1348L79.9668 16H77.1667ZM72.6388 12.032L71.4868 10.816H74.7508C75.5508 10.816 76.1481 10.6453 76.5428 10.304C76.9374 9.952 77.1348 9.472 77.1348 8.864C77.1348 8.24533 76.9374 7.76533 76.5428 7.424C76.1481 7.08267 75.5508 6.912 74.7508 6.912H71.4868L72.6388 5.68V12.032ZM87.2524 16.192C86.367 16.192 85.5457 16.048 84.7884 15.76C84.0417 15.472 83.391 15.0667 82.8364 14.544C82.2924 14.0213 81.8657 13.408 81.5564 12.704C81.2577 12 81.1084 11.232 81.1084 10.4C81.1084 9.568 81.2577 8.8 81.5564 8.096C81.8657 7.392 82.2977 6.77867 82.8524 6.256C83.407 5.73333 84.0577 5.328 84.8044 5.04C85.551 4.752 86.3617 4.608 87.2364 4.608C88.1217 4.608 88.9324 4.752 89.6684 5.04C90.415 5.328 91.0604 5.73333 91.6044 6.256C92.159 6.77867 92.591 7.392 92.9004 8.096C93.2097 8.78933 93.3644 9.55733 93.3644 10.4C93.3644 11.232 93.2097 12.0053 92.9004 12.72C92.591 13.424 92.159 14.0373 91.6044 14.56C91.0604 15.072 90.415 15.472 89.6684 15.76C88.9324 16.048 88.127 16.192 87.2524 16.192ZM87.2364 13.984C87.7377 13.984 88.1964 13.8987 88.6124 13.728C89.039 13.5573 89.4124 13.312 89.7324 12.992C90.0524 12.672 90.2977 12.2933 90.4684 11.856C90.6497 11.4187 90.7404 10.9333 90.7404 10.4C90.7404 9.86667 90.6497 9.38133 90.4684 8.944C90.2977 8.50667 90.0524 8.128 89.7324 7.808C89.423 7.488 89.055 7.24267 88.6284 7.072C88.2017 6.90133 87.7377 6.816 87.2364 6.816C86.735 6.816 86.271 6.90133 85.8444 7.072C85.4284 7.24267 85.0604 7.488 84.7404 7.808C84.4204 8.128 84.1697 8.50667 83.9884 8.944C83.8177 9.38133 83.7324 9.86667 83.7324 10.4C83.7324 10.9227 83.8177 11.408 83.9884 11.856C84.1697 12.2933 84.415 12.672 84.7244 12.992C85.0444 13.312 85.4177 13.5573 85.8444 13.728C86.271 13.8987 86.735 13.984 87.2364 13.984ZM97.7124 9.84H103.088V11.92H97.7124V9.84ZM97.9044 16H95.3124V4.8H103.776V6.88H97.9044V16ZM105.531 16V4.8H108.123V16H105.531ZM110.781 16V4.8H113.373V13.888H118.989V16H110.781ZM122.821 9.312H128.213V11.328H122.821V9.312ZM123.013 13.92H129.109V16H120.437V4.8H128.901V6.88H123.013V13.92ZM58.328 36V24.8H60.92V36H58.328ZM63.578 36V24.8H65.722L70.49 32.704H69.354L74.042 24.8H76.17L76.202 36H73.77L73.754 28.528H74.202L70.458 34.816H69.29L65.466 28.528H66.01V36H63.578ZM77.3872 36L82.3793 24.8H84.9393L89.9473 36H87.2273L83.1313 26.112H84.1553L80.0433 36H77.3872ZM79.8832 33.6L80.5713 31.632H86.3313L87.0353 33.6H79.8832ZM96.361 36.192C95.4757 36.192 94.6597 36.0533 93.913 35.776C93.177 35.488 92.5317 35.0827 91.977 34.56C91.433 34.0373 91.0063 33.424 90.697 32.72C90.3983 32.016 90.249 31.2427 90.249 30.4C90.249 29.5573 90.3983 28.784 90.697 28.08C91.0063 27.376 91.4383 26.7627 91.993 26.24C92.5477 25.7173 93.1983 25.3173 93.945 25.04C94.6917 24.752 95.513 24.608 96.409 24.608C97.401 24.608 98.2917 24.7733 99.081 25.104C99.881 25.4347 100.553 25.9147 101.097 26.544L99.433 28.08C99.0277 27.6533 98.585 27.3387 98.105 27.136C97.625 26.9227 97.1023 26.816 96.537 26.816C95.993 26.816 95.497 26.9013 95.049 27.072C94.601 27.2427 94.2117 27.488 93.881 27.808C93.561 28.128 93.3103 28.5067 93.129 28.944C92.9583 29.3813 92.873 29.8667 92.873 30.4C92.873 30.9227 92.9583 31.4027 93.129 31.84C93.3103 32.2773 93.561 32.6613 93.881 32.992C94.2117 33.312 94.5957 33.5573 95.033 33.728C95.481 33.8987 95.9717 33.984 96.505 33.984C97.017 33.984 97.513 33.904 97.993 33.744C98.4837 33.5733 98.9583 33.2907 99.417 32.896L100.889 34.768C100.281 35.2267 99.5717 35.5787 98.761 35.824C97.961 36.0693 97.161 36.192 96.361 36.192ZM98.521 34.432V30.224H100.889V34.768L98.521 34.432ZM105.681 29.312H111.073V31.328H105.681V29.312ZM105.873 33.92H111.969V36H103.297V24.8H111.761V26.88H105.873V33.92ZM62.008 56.192C61.112 56.192 60.2533 56.0747 59.432 55.84C58.6107 55.5947 57.9493 55.28 57.448 54.896L58.328 52.944C58.808 53.2853 59.3733 53.568 60.024 53.792C60.6853 54.0053 61.352 54.112 62.024 54.112C62.536 54.112 62.9467 54.064 63.256 53.968C63.576 53.8613 63.8107 53.7173 63.96 53.536C64.1093 53.3547 64.184 53.1467 64.184 52.912C64.184 52.6133 64.0667 52.3787 63.832 52.208C63.5973 52.0267 63.288 51.8827 62.904 51.776C62.52 51.6587 62.0933 51.552 61.624 51.456C61.1653 51.3493 60.7013 51.2213 60.232 51.072C59.7733 50.9227 59.352 50.7307 58.968 50.496C58.584 50.2613 58.2693 49.952 58.024 49.568C57.7893 49.184 57.672 48.6933 57.672 48.096C57.672 47.456 57.8427 46.8747 58.184 46.352C58.536 45.8187 59.0587 45.3973 59.752 45.088C60.456 44.768 61.336 44.608 62.392 44.608C63.096 44.608 63.7893 44.6933 64.472 44.864C65.1547 45.024 65.7573 45.2693 66.28 45.6L65.48 47.568C64.9573 47.2693 64.4347 47.0507 63.912 46.912C63.3893 46.7627 62.8773 46.688 62.376 46.688C61.8747 46.688 61.464 46.7467 61.144 46.864C60.824 46.9813 60.5947 47.136 60.456 47.328C60.3173 47.5093 60.248 47.7227 60.248 47.968C60.248 48.256 60.3653 48.4907 60.6 48.672C60.8347 48.8427 61.144 48.9813 61.528 49.088C61.912 49.1947 62.3333 49.3013 62.792 49.408C63.2613 49.5147 63.7253 49.6373 64.184 49.776C64.6533 49.9147 65.08 50.1013 65.464 50.336C65.848 50.5707 66.1573 50.88 66.392 51.264C66.6373 51.648 66.76 52.1333 66.76 52.72C66.76 53.3493 66.584 53.9253 66.232 54.448C65.88 54.9707 65.352 55.392 64.648 55.712C63.9547 56.032 63.0747 56.192 62.008 56.192ZM70.8511 56V46.912H67.2671V44.8H77.0271V46.912H73.4431V56H70.8511ZM83.2103 56.192C81.6209 56.192 80.3783 55.7493 79.4823 54.864C78.5863 53.9787 78.1383 52.7147 78.1383 51.072V44.8H80.7303V50.976C80.7303 52.0427 80.9489 52.8107 81.3863 53.28C81.8236 53.7493 82.4369 53.984 83.2263 53.984C84.0156 53.984 84.6289 53.7493 85.0663 53.28C85.5036 52.8107 85.7222 52.0427 85.7222 50.976V44.8H88.2823V51.072C88.2823 52.7147 87.8343 53.9787 86.9383 54.864C86.0423 55.7493 84.7996 56.192 83.2103 56.192ZM90.8436 56V44.8H95.9316C97.1476 44.8 98.2196 45.0347 99.1476 45.504C100.076 45.9627 100.801 46.608 101.324 47.44C101.846 48.272 102.108 49.2587 102.108 50.4C102.108 51.5307 101.846 52.5173 101.324 53.36C100.801 54.192 100.076 54.8427 99.1476 55.312C98.2196 55.7707 97.1476 56 95.9316 56H90.8436ZM93.4356 53.872H95.8036C96.5503 53.872 97.1956 53.7333 97.7396 53.456C98.2943 53.168 98.721 52.7627 99.0196 52.24C99.329 51.7173 99.4836 51.104 99.4836 50.4C99.4836 49.6853 99.329 49.072 99.0196 48.56C98.721 48.0373 98.2943 47.6373 97.7396 47.36C97.1956 47.072 96.5503 46.928 95.8036 46.928H93.4356V53.872ZM104.062 56V44.8H106.654V56H104.062ZM114.752 56.192C113.867 56.192 113.046 56.048 112.288 55.76C111.542 55.472 110.891 55.0667 110.336 54.544C109.792 54.0213 109.366 53.408 109.056 52.704C108.758 52 108.608 51.232 108.608 50.4C108.608 49.568 108.758 48.8 109.056 48.096C109.366 47.392 109.798 46.7787 110.352 46.256C110.907 45.7333 111.558 45.328 112.304 45.04C113.051 44.752 113.862 44.608 114.736 44.608C115.622 44.608 116.432 44.752 117.168 45.04C117.915 45.328 118.56 45.7333 119.104 46.256C119.659 46.7787 120.091 47.392 120.4 48.096C120.71 48.7893 120.864 49.5573 120.864 50.4C120.864 51.232 120.71 52.0053 120.4 52.72C120.091 53.424 119.659 54.0373 119.104 54.56C118.56 55.072 117.915 55.472 117.168 55.76C116.432 56.048 115.627 56.192 114.752 56.192ZM114.736 53.984C115.238 53.984 115.696 53.8987 116.112 53.728C116.539 53.5573 116.912 53.312 117.232 52.992C117.552 52.672 117.798 52.2933 117.968 51.856C118.15 51.4187 118.24 50.9333 118.24 50.4C118.24 49.8667 118.15 49.3813 117.968 48.944C117.798 48.5067 117.552 48.128 117.232 47.808C116.923 47.488 116.555 47.2427 116.128 47.072C115.702 46.9013 115.238 46.816 114.736 46.816C114.235 46.816 113.771 46.9013 113.344 47.072C112.928 47.2427 112.56 47.488 112.24 47.808C111.92 48.128 111.67 48.5067 111.488 48.944C111.318 49.3813 111.232 49.8667 111.232 50.4C111.232 50.9227 111.318 51.408 111.488 51.856C111.67 52.2933 111.915 52.672 112.224 52.992C112.544 53.312 112.918 53.5573 113.344 53.728C113.771 53.8987 114.235 53.984 114.736 53.984ZM123.268 56.128C122.841 56.128 122.473 55.984 122.164 55.696C121.865 55.3973 121.716 55.0187 121.716 54.56C121.716 54.1013 121.865 53.7333 122.164 53.456C122.473 53.168 122.841 53.024 123.268 53.024C123.705 53.024 124.073 53.168 124.372 53.456C124.671 53.7333 124.82 54.1013 124.82 54.56C124.82 55.0187 124.671 55.3973 124.372 55.696C124.073 55.984 123.705 56.128 123.268 56.128Z" fill="#3D73DC"/>
</svg>
